<svg xmlns="http://www.w3.org/2000/svg" viewBox="0 0 310.42 83.65"><defs><style>.cls-1{fill:#234a9b;}.cls-2{fill:#2a9c7b;}.cls-3{fill:#1b1b1b;}</style></defs><g id="Layer_2" data-name="Layer 2"><g id="Layer_2-2" data-name="Layer 2"><path class="cls-1" d="M20.09,0h60s22.12,2.36,13.3,37.32c-10,.2-78-.21-93.39,25.93,4.61-7.89,12.2-19.07,29.73-28.09A98.25,98.25,0,0,1,73,25.32c1.33-.31,2.56-1.64,2.36-4.61l-1-3h-37Z"/><path class="cls-2" d="M94.42,43.26s-57.31-3.69-76.17,8H65.3s9.33-.21,7.59,12H23.37L1.85,83.65H79.66S100.36,84,94.42,43.26Z"/><path class="cls-3" d="M109.56,42c0-5.56,0-11.08.09-16.65h24.82c.13,2.33.13,4.67.13,7.9s-1.34,5.94-3.81,6.85c2.82,1.14,4.8,3.47,4.89,8.13.26,7.37-4.71,10.42-10.44,10.42H109.65C109.56,53.06,109.56,47.55,109.56,42Zm8-9.8v8.94h.18c.67-2.14,1.79-2.71,3.41-2.71h3.31c2,0,2.42-1.19,2.42-3.14V32.18Zm7,19.12c2.5,0,3.18-1.23,3.18-3.52,0-2-.77-3.09-2.92-3.09h-7.21V51.3Z"/><path class="cls-3" d="M139.66,41.36c0-5.75,0-11.51.09-17.26h7.66c.09,5.75.09,11.51.09,17.26s0,11.51-.09,17.27h-7.66C139.66,52.87,139.66,47.12,139.66,41.36Z"/><path class="cls-3" d="M151.53,58.44c-.13-6.85-.13-14.7.05-23.59h7.75v18h4.21c1.52,0,2.15-1,2.15-2.75V34.85h7.75c.09,3.94.09,7.94.09,11.89s0,7.94-.09,11.89H166.9l-.85-4.09h-.14a5,5,0,0,1-4.57,4.23C160.54,58.82,157.18,58.77,151.53,58.44Z"/><path class="cls-3" d="M177.24,46.74c0-4,0-8,.09-11.89h6.59l1,4.09H185c1-3.19,2.87-4.09,4.75-4.19a18.8,18.8,0,0,1,2.68,0c2.83.24,4.26,1.76,5.11,4.47a5.54,5.54,0,0,1,5.2-4.47c1,0,3.14,0,8.78.15.18,7,.13,14.88-.05,23.78h-7.7v-18h-3.45c-1.61,0-2.11,1.24-2.11,2.76V58.63h-7.66V43.41c0-1.52-.49-2.76-2.19-2.76h-1.21c-1.61,0-2.11,1.14-2.11,2.76V58.63h-7.75C177.24,54.68,177.24,50.68,177.24,46.74Z"/><path class="cls-3" d="M215.36,51.4c-.13-2.57-.09-6.66,0-9.32.09-3.52,2.15-7.28,7.4-7.28h14v5.71c0,5-.76,8.51-7.8,8.51H223.2v.86c0,1.71.54,2.85,2.24,2.85h11.29v5.75c-2.15.15-4.21.15-6.54.15h-6.4C217.69,58.63,215.54,55.3,215.36,51.4Zm10.8-11.08c-1.88,0-3,.76-3,2.75v3.1h.14c.4-1.43,1-2.05,2.15-2.05h2.6a1.55,1.55,0,0,0,1.74-1.57V40.32Z"/><path class="cls-3" d="M240.32,46.74c0-4,0-8,.09-11.89H247l.89,4.09h.18c.9-2.67,1.93-4,4.39-4.19.9-.09,4.12,0,9.77.1.18,7,.13,14.88,0,23.78h-7.7v-18h-4.26c-1.61,0-2.1,1.14-2.1,2.76V58.63h-7.75C240.32,54.68,240.32,50.68,240.32,46.74Z"/><path class="cls-3" d="M272.56,41.42c0-5.67,0-11.29.1-17h7.84c.09,5.66.09,11.28.09,17s0,11.28-.09,16.95h-7.84C272.56,52.7,272.56,47.08,272.56,41.42Z"/><path class="cls-3" d="M293.41,41.42c0-3.93,0-5.67,0-9.54-3.55,0-5.79,0-9-.15V24.47h25.95v7.26c-3.51.15-5.43.15-8.21.15h-3.69v.24a3.86,3.86,0,0,1,3,4.16v5.14c0,5.66,0,11.28-.23,16.95h-7.71C293.41,52.7,293.41,47.08,293.41,41.42Z"/></g></g></svg>